<svg xmlns="http://www.w3.org/2000/svg" xmlns:xlink="http://www.w3.org/1999/xlink" width="64" height="64"><style>.B{clip-path:url(#E)}.C{clip-path:url(#T)}.D{clip-path:url(#M)}.E{clip-path:url(#b)}.F{clip-path:url(#g)}.G{clip-path:url(#k)}.H{clip-path:url(#AM)}.I{clip-path:url(#s)}.J{clip-path:url(#w)}.K{clip-path:url(#AA)}.L{clip-path:url(#AE)}.M{clip-path:url(#AI)}.N{clip-path:url(#o)}</style><defs><path id="A" d="M512 274.094v-36.19l-31.6-5.743a224.6 224.6 0 0 0-7.93-40.03l26.958-17.377-13.852-33.438-31.354 6.776a226 226 0 0 0-22.705-33.898l18.286-26.415-25.594-25.59L397.8 80.47a226.3 226.3 0 0 0-33.898-22.706l6.773-31.354-33.437-13.85-17.376 26.958a225 225 0 0 0-40.032-7.931L274.098 0h-36.193l-5.744 31.6a224.5 224.5 0 0 0-40.033 7.931l-17.376-26.96-33.438 13.85 6.776 31.354a226 226 0 0 0-33.9 22.706L87.776 62.185l-25.59 25.6L80.472 114.2a226 226 0 0 0-22.705 33.898l-31.355-6.776-13.85 33.438 26.96 17.377a224.7 224.7 0 0 0-7.93 40.03L0 237.902v36.19l31.6 5.744a224.7 224.7 0 0 0 7.93 40.032l-26.96 17.378 13.85 33.435 31.355-6.773a226 226 0 0 0 22.705 33.898L62.185 424.22l25.59 25.593 26.415-18.287a226 226 0 0 0 33.9 22.706l-6.776 31.354 33.438 13.852 17.377-26.958a225 225 0 0 0 40.03 7.93l5.744 31.6h36.192l5.744-31.6a224.6 224.6 0 0 0 40.03-7.93l17.378 26.957 33.436-13.852-6.772-31.354a226 226 0 0 0 33.897-22.706l26.414 18.286 25.593-25.593-18.286-26.412a226.5 226.5 0 0 0 22.706-33.9l31.354 6.772 13.853-33.435-26.958-17.377a225 225 0 0 0 7.93-40.032z"/><path id="B" d="M256 44.334c116.894 0 211.676 94.77 211.676 211.664S372.894 467.673 256 467.673 44.335 372.89 44.335 255.998 139.107 44.334 256 44.334"/><path id="C" d="M452.182 255.998c0 108.338-87.844 196.2-196.182 196.2s-196.18-87.853-196.18-196.2S147.66 59.832 256 59.832s196.182 87.83 196.182 196.166"/><path id="D" d="M256 80.5c-96.922 0-175.5 78.578-175.5 175.5S159.08 431.5 256 431.5 431.5 352.92 431.5 256 352.922 80.5 256 80.5"/></defs><clipPath id="E"><use xlink:href="#A"/></clipPath><linearGradient id="F" x1="480.818" x2="31.183" y1="380.617" y2="131.38" gradientUnits="userSpaceOnUse"><stop offset="0" stop-color="#bdc6c9"/><stop offset=".092" stop-color="#abb4b7"/><stop offset=".277" stop-color="#7d8588"/><stop offset=".483" stop-color="#444a4d"/><stop offset=".584" stop-color="#5e6669"/><stop offset=".772" stop-color="#899396"/><stop offset=".916" stop-color="#a3afb2"/><stop offset="1" stop-color="#adbabd"/></linearGradient><circle cx="256" cy="255.998" r="257" fill="url(#F)" class="B" transform="scale(.125)"/><radialGradient id="G" cx="256" cy="255.998" r="257" gradientTransform="translate(0 .001)" gradientUnits="userSpaceOnUse"><stop offset=".73" stop-color="#004ed4" stop-opacity=".4"/><stop offset=".784" stop-color="#437cde" stop-opacity=".32"/><stop offset=".842" stop-color="#83a8e7" stop-opacity=".234"/><stop offset=".894" stop-color="#b5caee" stop-opacity=".157"/><stop offset=".94" stop-color="#dae3f4" stop-opacity=".09"/><stop offset=".977" stop-color="#f0f2f7" stop-opacity=".035"/><stop offset="1" stop-color="#f8f8f8" stop-opacity="0"/></radialGradient><circle cx="256" cy="255.998" r="257" fill="url(#G)" class="B" transform="scale(.125)"/><linearGradient id="H" x1="352.299" x2="159.701" y1="494.346" y2="17.65" gradientUnits="userSpaceOnUse"><stop offset="0" stop-color="#fff" stop-opacity="0"/><stop offset=".5" stop-color="#4d5057" stop-opacity=".75"/><stop offset="1" stop-color="#fff" stop-opacity="0"/></linearGradient><circle cx="256" cy="255.998" r="257" fill="url(#H)" class="B" transform="scale(.125)"/><radialGradient id="I" cx="256" cy="255.998" r="257" gradientTransform="translate(0 .001)" gradientUnits="userSpaceOnUse"><stop offset=".8" stop-color="#6b6b6b" stop-opacity="0"/><stop offset=".826" stop-color="#848484" stop-opacity=".02"/><stop offset=".883" stop-color="#b5b5b5" stop-opacity=".066"/><stop offset=".933" stop-color="#dadada" stop-opacity=".107"/><stop offset=".974" stop-color="#f0f0f0" stop-opacity=".14"/><stop offset="1" stop-color="#f8f8f8" stop-opacity=".16"/></radialGradient><circle cx="256" cy="255.998" r="257" fill="url(#I)" class="B" transform="scale(.125)"/><linearGradient id="J" x1="74.274" x2="437.726" y1="437.724" y2="74.272" gradientUnits="userSpaceOnUse"><stop offset="0" stop-color="#fff" stop-opacity="0"/><stop offset=".5" stop-color="#828282" stop-opacity=".6"/><stop offset="1" stop-color="#fff" stop-opacity="0"/></linearGradient><circle cx="256" cy="255.998" r="257" fill="url(#J)" class="B" transform="scale(.125)"/><linearGradient id="K" x1="45.46" x2="466.539" y1="403.419" y2="108.576" gradientUnits="userSpaceOnUse"><stop offset=".2" stop-color="#fff" stop-opacity="0"/><stop offset=".5" stop-color="#fff" stop-opacity=".36"/><stop offset=".8" stop-color="#fff" stop-opacity="0"/></linearGradient><circle cx="256" cy="255.998" r="257" fill="url(#K)" class="B" transform="scale(.125)"/><defs><path id="L" d="M256 51C142.776 51 51 142.775 51 256s91.777 205 205 205 205-91.775 205-205S369.226 51 256 51"/></defs><clipPath id="M"><use xlink:href="#L"/></clipPath><linearGradient id="N" x1="358.64" x2="153.366" y1="70.842" y2="441.165" gradientUnits="userSpaceOnUse"><stop offset="0" stop-color="#bdc6c9"/><stop offset=".092" stop-color="#abb4b7"/><stop offset=".277" stop-color="#7d8588"/><stop offset=".483" stop-color="#444a4d"/><stop offset=".584" stop-color="#5e6669"/><stop offset=".772" stop-color="#899396"/><stop offset=".916" stop-color="#a3afb2"/><stop offset="1" stop-color="#adbabd"/></linearGradient><use xlink:href="#B" fill="url(#N)" class="D" transform="scale(.125)"/><radialGradient id="O" cx="255.997" cy="256.006" r="217.969" gradientTransform="matrix(0 -.971 .971 0 7.396 504.601)" gradientUnits="userSpaceOnUse"><stop offset=".86" stop-color="#0058d4" stop-opacity=".6"/><stop offset="1" stop-color="#f8f8f8" stop-opacity="0"/></radialGradient><use xlink:href="#B" fill="url(#O)" class="D" transform="scale(.125)"/><linearGradient id="P" x1="452.313" x2="59.7" y1="176.687" y2="335.314" gradientUnits="userSpaceOnUse"><stop offset="0" stop-color="#fff" stop-opacity="0"/><stop offset=".5" stop-color="#4d5057" stop-opacity=".75"/><stop offset="1" stop-color="#fff" stop-opacity="0"/></linearGradient><use xlink:href="#B" fill="url(#P)" class="D" transform="scale(.125)"/><linearGradient id="Q" x1="405.673" x2="106.333" y1="405.671" y2="106.331" gradientUnits="userSpaceOnUse"><stop offset="0" stop-color="#fff" stop-opacity="0"/><stop offset=".5" stop-color="#828282" stop-opacity=".6"/><stop offset="1" stop-color="#fff" stop-opacity="0"/></linearGradient><use xlink:href="#B" fill="url(#Q)" class="D" transform="scale(.125)"/><linearGradient id="R" x1="377.421" x2="134.588" y1="429.401" y2="82.599" gradientUnits="userSpaceOnUse"><stop offset=".2" stop-color="#fff" stop-opacity="0"/><stop offset=".5" stop-color="#fff" stop-opacity=".36"/><stop offset=".8" stop-color="#fff" stop-opacity="0"/></linearGradient><use xlink:href="#B" fill="url(#R)" class="D" transform="scale(.125)"/><defs><path id="S" d="M446 256c0-104.932-85.066-190-190-190S66 151.067 66 256s85.066 189.998 190 189.998S446 360.933 446 256"/></defs><clipPath id="T"><use xlink:href="#S"/></clipPath><linearGradient id="U" x1="427.61" x2="84.388" y1="351.133" y2="160.881" gradientUnits="userSpaceOnUse"><stop offset="0" stop-color="#bdc6c9"/><stop offset=".092" stop-color="#abb4b7"/><stop offset=".277" stop-color="#7d8588"/><stop offset=".483" stop-color="#444a4d"/><stop offset=".584" stop-color="#5e6669"/><stop offset=".772" stop-color="#899396"/><stop offset=".916" stop-color="#a3afb2"/><stop offset="1" stop-color="#adbabd"/></linearGradient><use xlink:href="#C" fill="url(#U)" class="C" transform="scale(.125)"/><radialGradient id="V" cx="260.891" cy="260.9" r="191.461" gradientTransform="translate(7.397 7.398)scale(.971)" gradientUnits="userSpaceOnUse"><stop offset=".88" stop-color="#0037d4"/><stop offset="1" stop-color="#f8f8f8" stop-opacity="0"/></radialGradient><path fill="url(#V)" d="M446.68 260.746c0 102.678-83.253 185.94-185.93 185.94S74.82 363.423 74.82 260.746 158.07 74.83 260.748 74.83s185.93 83.24 185.93 185.915z" class="C" transform="scale(.125)"/><radialGradient id="W" cx="256" cy="256" r="197.367" gradientTransform="translate(6.961 6.96)scale(.973)" gradientUnits="userSpaceOnUse"><stop offset=".88" stop-color="#0066d4"/><stop offset="1" stop-color="#f8f8f8" stop-opacity="0"/></radialGradient><path fill="url(#W)" d="M448 255.987C448 362.02 362.032 448 256 448S64 362.02 64 255.987 149.967 64 256 64s192 85.957 192 191.987" class="C" transform="scale(.125)"/><linearGradient id="X" x1="329.512" x2="182.495" y1="437.945" y2="74.067" gradientUnits="userSpaceOnUse"><stop offset="0" stop-color="#fff" stop-opacity="0"/><stop offset=".5" stop-color="#4d5057" stop-opacity=".75"/><stop offset="1" stop-color="#fff" stop-opacity="0"/></linearGradient><use xlink:href="#C" fill="url(#X)" class="C" transform="scale(.125)"/><linearGradient id="Y" x1="117.285" x2="394.718" y1="394.722" y2="117.289" gradientUnits="userSpaceOnUse"><stop offset="0" stop-color="#fff" stop-opacity="0"/><stop offset=".5" stop-color="#828282" stop-opacity=".6"/><stop offset="1" stop-color="#fff" stop-opacity="0"/></linearGradient><use xlink:href="#C" fill="url(#Y)" class="C" transform="scale(.125)"/><linearGradient id="Z" x1="95.291" x2="416.713" y1="368.536" y2="143.474" gradientUnits="userSpaceOnUse"><stop offset=".2" stop-color="#fff" stop-opacity="0"/><stop offset=".5" stop-color="#fff" stop-opacity=".36"/><stop offset=".8" stop-color="#fff" stop-opacity="0"/></linearGradient><use xlink:href="#C" fill="url(#Z)" class="C" transform="scale(.125)"/><defs><path id="a" d="M256 81c-96.646 0-175 78.355-175 175s78.355 175 175 175 175-78.355 175-175S352.646 81 256 81"/></defs><clipPath id="b"><use xlink:href="#a"/></clipPath><linearGradient id="c" x1="131.906" x2="380.096" y1="131.904" y2="380.094" gradientUnits="userSpaceOnUse"><stop offset="0" stop-color="#14b9ff"/><stop offset="1" stop-color="#48007f"/></linearGradient><use xlink:href="#D" fill="url(#c)" class="E" transform="scale(.125)"/><radialGradient id="d" cx="256" cy="255.998" r="175.5" gradientTransform="translate(0 .001)" gradientUnits="userSpaceOnUse"><stop offset=".33" stop-color="#006cc2" stop-opacity="0"/><stop offset=".628" stop-color="#016ec3" stop-opacity=".232"/><stop offset=".736" stop-color="#0575c7" stop-opacity=".315"/><stop offset=".813" stop-color="#0d80ce" stop-opacity=".374"/><stop offset=".874" stop-color="#1791d8" stop-opacity=".422"/><stop offset=".927" stop-color="#25a7e4" stop-opacity=".464"/><stop offset=".974" stop-color="#36c2f4" stop-opacity=".5"/><stop offset="1" stop-color="#42d5ff" stop-opacity=".52"/></radialGradient><use xlink:href="#D" fill="url(#d)" class="E" transform="scale(.125)"/><radialGradient id="e" cx="202" cy="192.998" r="127" gradientTransform="translate(0 .001)" gradientUnits="userSpaceOnUse"><stop offset="0" stop-color="#e1ffff" stop-opacity=".5"/><stop offset=".093" stop-color="#d9f9fd" stop-opacity=".453"/><stop offset=".239" stop-color="#c3e7f6" stop-opacity=".38"/><stop offset=".42" stop-color="#9ecaec" stop-opacity=".3"/><stop offset=".628" stop-color="#6ca2de" stop-opacity=".186"/><stop offset=".855" stop-color="#2c6fcc" stop-opacity=".072"/><stop offset="1" stop-color="#004cbf" stop-opacity="0"/></radialGradient><g class="E"><path fill="url(#e)" d="M202 66c-70.134 0-127 56.867-127 127s56.867 127 127 127c70.13 0 127-56.87 127-127S272.13 66 202 66" transform="scale(.125)"/><path fill="#191919" d="M32 8.375C18.953 8.375 8.375 18.953 8.375 32S18.953 55.625 32 55.625 55.625 45.048 55.625 32 45.048 8.375 32 8.375m0 45.185c-11.907 0-21.56-9.653-21.56-21.56S20.092 10.44 32 10.44 53.56 20.093 53.56 32 43.907 53.56 32 53.56" opacity=".3"/></g><path fill="none" stroke="#e4eaf4" stroke-miterlimit="10" stroke-width=".375" d="m28.908 30.27 8.167-6.812m0 0-6.342-6.396m6.342 6.396 2.438-6.154M28.908 30.27l-10.654-3m10.654 3-6.337 8.792m6.337-8.792 7.075 7.925m0 .001 9.042 3.038m-9.042-3.038-4.32 7.996"/><defs><circle id="f" cx="231.267" cy="242.166" r="34.333"/></defs><clipPath id="g"><use xlink:href="#f"/></clipPath><radialGradient id="h" cx="219.436" cy="230.335" r="51.497" gradientUnits="userSpaceOnUse"><stop offset="0" stop-color="#fff"/><stop offset="1" stop-color="#b8c4d1"/></radialGradient><circle cx="219.436" cy="230.335" r="51.498" fill="url(#h)" class="F" transform="scale(.125)"/><radialGradient id="i" cx="228.484" cy="237.666" r="34.647" gradientTransform="translate(-12.968 -11.834)scale(1.063)" gradientUnits="userSpaceOnUse"><stop offset="0" stop-color="#fff" stop-opacity="0"/><stop offset=".265" stop-color="#fcfdfe" stop-opacity=".212"/><stop offset=".449" stop-color="#f3f6fd" stop-opacity=".36"/><stop offset=".609" stop-color="#e4ebf9" stop-opacity=".487"/><stop offset=".755" stop-color="#cedbf5" stop-opacity=".604"/><stop offset=".89" stop-color="#b2c7ef" stop-opacity=".712"/><stop offset="1" stop-color="#95b2e9" stop-opacity=".8"/></radialGradient><circle cx="229.934" cy="240.833" r="36.833" fill="url(#i)" class="F" transform="scale(.125)"/><defs><circle id="j" cx="180.568" cy="312.5" r="24.033"/></defs><clipPath id="k"><use xlink:href="#j"/></clipPath><radialGradient id="l" cx="172.285" cy="304.218" r="36.048" gradientUnits="userSpaceOnUse"><stop offset="0" stop-color="#fff"/><stop offset="1" stop-color="#b8c4d1"/></radialGradient><circle cx="172.285" cy="304.219" r="36.048" fill="url(#l)" class="G" transform="scale(.125)"/><radialGradient id="m" cx="181.17" cy="304.201" r="24.252" gradientTransform="translate(-12.968 -11.834)scale(1.063)" gradientUnits="userSpaceOnUse"><stop offset="0" stop-color="#fff" stop-opacity="0"/><stop offset=".265" stop-color="#fcfdfe" stop-opacity=".212"/><stop offset=".449" stop-color="#f3f6fd" stop-opacity=".36"/><stop offset=".609" stop-color="#e4eaf9" stop-opacity=".487"/><stop offset=".755" stop-color="#ced9f5" stop-opacity=".604"/><stop offset=".89" stop-color="#b2c4ef" stop-opacity=".712"/><stop offset="1" stop-color="#95aee9" stop-opacity=".8"/></radialGradient><circle cx="179.634" cy="311.566" r="25.783" fill="url(#m)" class="G" transform="scale(.125)"/><defs><circle id="n" cx="288.801" cy="306.5" r="24.033"/></defs><clipPath id="o"><use xlink:href="#n"/></clipPath><radialGradient id="p" cx="280.519" cy="298.218" r="36.048" gradientUnits="userSpaceOnUse"><stop offset="0" stop-color="#fff"/><stop offset="1" stop-color="#b8c4d1"/></radialGradient><circle cx="280.519" cy="298.219" r="36.048" fill="url(#p)" class="N" transform="scale(.125)"/><radialGradient id="q" cx="282.978" cy="298.557" r="24.253" gradientTransform="translate(-12.968 -11.834)scale(1.063)" gradientUnits="userSpaceOnUse"><stop offset="0" stop-color="#fff" stop-opacity="0"/><stop offset=".265" stop-color="#fcfdfe" stop-opacity=".212"/><stop offset=".449" stop-color="#f3f5fd" stop-opacity=".36"/><stop offset=".609" stop-color="#e4e7f9" stop-opacity=".487"/><stop offset=".755" stop-color="#ced4f5" stop-opacity=".604"/><stop offset=".89" stop-color="#b2bbef" stop-opacity=".712"/><stop offset="1" stop-color="#95a2e9" stop-opacity=".8"/></radialGradient><circle cx="287.867" cy="305.566" r="25.783" fill="url(#q)" class="N" transform="scale(.125)"/><defs><circle id="r" cx="146.035" cy="218.167" r="17.167"/></defs><clipPath id="s"><use xlink:href="#r"/></clipPath><radialGradient id="t" cx="140.119" cy="212.251" r="25.749" gradientUnits="userSpaceOnUse"><stop offset="0" stop-color="#fff"/><stop offset="1" stop-color="#b8c4d1"/></radialGradient><circle cx="140.119" cy="212.252" r="25.749" fill="url(#t)" class="I" transform="scale(.125)"/><radialGradient id="u" cx="148.938" cy="215.719" r="17.323" gradientTransform="translate(-12.968 -11.834)scale(1.063)" gradientUnits="userSpaceOnUse"><stop offset="0" stop-color="#fff" stop-opacity="0"/><stop offset=".265" stop-color="#fcfefe" stop-opacity=".212"/><stop offset=".449" stop-color="#f3f9fd" stop-opacity=".36"/><stop offset=".609" stop-color="#e4f1f9" stop-opacity=".487"/><stop offset=".755" stop-color="#cee5f5" stop-opacity=".604"/><stop offset=".89" stop-color="#b2d6ef" stop-opacity=".712"/><stop offset="1" stop-color="#95c7e9" stop-opacity=".8"/></radialGradient><circle cx="145.368" cy="217.5" r="18.416" fill="url(#u)" class="I" transform="scale(.125)"/><defs><circle id="v" cx="296.603" cy="187.667" r="17.167"/></defs><clipPath id="w"><use xlink:href="#v"/></clipPath><radialGradient id="x" cx="290.687" cy="181.751" r="25.749" gradientUnits="userSpaceOnUse"><stop offset="0" stop-color="#fff"/><stop offset="1" stop-color="#b8c4d1"/></radialGradient><circle cx="290.687" cy="181.751" r="25.749" fill="url(#x)" class="J" transform="scale(.125)"/><radialGradient id="y" cx="290.568" cy="187.029" r="17.323" gradientTransform="translate(-12.968 -11.834)scale(1.063)" gradientUnits="userSpaceOnUse"><stop offset="0" stop-color="#fff" stop-opacity="0"/><stop offset=".265" stop-color="#fcfdfe" stop-opacity=".212"/><stop offset=".449" stop-color="#f3f7fd" stop-opacity=".36"/><stop offset=".609" stop-color="#e4ecf9" stop-opacity=".487"/><stop offset=".755" stop-color="#cedef5" stop-opacity=".604"/><stop offset=".89" stop-color="#b2cbef" stop-opacity=".712"/><stop offset="1" stop-color="#95b7e9" stop-opacity=".8"/></radialGradient><circle cx="295.936" cy="187" r="18.416" fill="url(#y)" class="J" transform="scale(.125)"/><defs><circle id="z" cx="253.304" cy="369.533" r="17.167"/></defs><clipPath id="AA"><use xlink:href="#z"/></clipPath><radialGradient id="AB" cx="247.388" cy="363.618" r="25.749" gradientUnits="userSpaceOnUse"><stop offset="0" stop-color="#fff"/><stop offset="1" stop-color="#b8c4d1"/></radialGradient><circle cx="247.388" cy="363.619" r="25.749" fill="url(#AB)" class="K" transform="scale(.125)"/><radialGradient id="AC" cx="249.839" cy="358.1" r="17.323" gradientTransform="translate(-12.968 -11.834)scale(1.063)" gradientUnits="userSpaceOnUse"><stop offset="0" stop-color="#fff" stop-opacity="0"/><stop offset=".265" stop-color="#fcfcfe" stop-opacity=".212"/><stop offset=".449" stop-color="#f3f3fd" stop-opacity=".36"/><stop offset=".609" stop-color="#e4e4f9" stop-opacity=".487"/><stop offset=".755" stop-color="#cecff5" stop-opacity=".604"/><stop offset=".89" stop-color="#b2b4ef" stop-opacity=".712"/><stop offset="1" stop-color="#9598e9" stop-opacity=".8"/></radialGradient><circle cx="252.637" cy="368.867" r="18.416" fill="url(#AC)" class="K" transform="scale(.125)"/><defs><circle id="AD" cx="360.868" cy="330.533" r="17.167"/></defs><clipPath id="AE"><use xlink:href="#AD"/></clipPath><radialGradient id="AF" cx="354.952" cy="324.618" r="25.749" gradientUnits="userSpaceOnUse"><stop offset="0" stop-color="#fff"/><stop offset="1" stop-color="#b8c4d1"/></radialGradient><circle cx="354.952" cy="324.619" r="25.749" fill="url(#AF)" class="L" transform="scale(.125)"/><radialGradient id="AG" cx="351.019" cy="321.415" r="17.322" gradientTransform="translate(-12.968 -11.834)scale(1.063)" gradientUnits="userSpaceOnUse"><stop offset="0" stop-color="#fff" stop-opacity="0"/><stop offset=".265" stop-color="#fdfcfe" stop-opacity=".212"/><stop offset=".449" stop-color="#f5f3fd" stop-opacity=".36"/><stop offset=".609" stop-color="#e9e4f9" stop-opacity=".487"/><stop offset=".755" stop-color="#d7cef5" stop-opacity=".604"/><stop offset=".89" stop-color="#c0b2ef" stop-opacity=".712"/><stop offset="1" stop-color="#a995e9" stop-opacity=".8"/></radialGradient><circle cx="360.201" cy="329.867" r="18.416" fill="url(#AG)" class="L" transform="scale(.125)"/><defs><circle id="AH" cx="245.867" cy="136.5" r="13.733"/></defs><clipPath id="AI"><use xlink:href="#AH"/></clipPath><radialGradient id="AJ" cx="241.135" cy="131.768" r="20.599" gradientUnits="userSpaceOnUse"><stop offset="0" stop-color="#fff"/><stop offset="1" stop-color="#b8c4d1"/></radialGradient><circle cx="241.135" cy="131.768" r="20.599" fill="url(#AJ)" class="M" transform="scale(.125)"/><radialGradient id="AK" cx="242.97" cy="139.026" r="13.859" gradientTransform="translate(-12.968 -11.834)scale(1.063)" gradientUnits="userSpaceOnUse"><stop offset="0" stop-color="#fff" stop-opacity="0"/><stop offset=".265" stop-color="#fcfefe" stop-opacity=".212"/><stop offset=".449" stop-color="#f3f9fd" stop-opacity=".36"/><stop offset=".609" stop-color="#e4f1f9" stop-opacity=".487"/><stop offset=".755" stop-color="#cee5f5" stop-opacity=".604"/><stop offset=".89" stop-color="#b2d6ef" stop-opacity=".712"/><stop offset="1" stop-color="#95c7e9" stop-opacity=".8"/></radialGradient><circle cx="245.334" cy="135.967" r="14.733" fill="url(#AK)" class="M" transform="scale(.125)"/><defs><circle id="AL" cx="316.102" cy="138.438" r="13.733"/></defs><clipPath id="AM"><use xlink:href="#AL"/></clipPath><radialGradient id="AN" cx="311.369" cy="133.706" r="20.599" gradientUnits="userSpaceOnUse"><stop offset="0" stop-color="#fff"/><stop offset="1" stop-color="#b8c4d1"/></radialGradient><circle cx="311.369" cy="133.707" r="20.599" fill="url(#AN)" class="H" transform="scale(.125)"/><radialGradient id="AO" cx="309.035" cy="140.85" r="13.859" gradientTransform="translate(-12.968 -11.834)scale(1.063)" gradientUnits="userSpaceOnUse"><stop offset="0" stop-color="#fff" stop-opacity="0"/><stop offset=".265" stop-color="#fcfdfe" stop-opacity=".212"/><stop offset=".449" stop-color="#f3f7fd" stop-opacity=".36"/><stop offset=".609" stop-color="#e4ecf9" stop-opacity=".487"/><stop offset=".755" stop-color="#ceddf5" stop-opacity=".604"/><stop offset=".89" stop-color="#b2c9ef" stop-opacity=".712"/><stop offset="1" stop-color="#95b5e9" stop-opacity=".8"/></radialGradient><circle cx="315.568" cy="137.905" r="14.733" fill="url(#AO)" class="H" transform="scale(.125)"/></svg>