<svg xmlns="http://www.w3.org/2000/svg" width="600" height="601" fill="none" viewBox="0 0 600 601"><g clip-path="url(#a)"><path fill="#2C0059" d="M0 68.023C0 30.978 30.03.948 67.075.948h465.85C569.97.948 600 30.978 600 68.023v465.85c0 37.044-30.031 67.075-67.075 67.075H67.075C30.031 600.948 0 570.917 0 533.873z"/><path fill="#A950FF" d="M285.264 252.767c8.137-8.137 21.33-8.137 29.467 0l33.448 33.448c8.138 8.137 8.138 21.33 0 29.467l-33.448 33.448c-8.137 8.138-21.33 8.138-29.467 0l-33.448-33.448c-8.137-8.137-8.137-21.33 0-29.467zm154.058-.267c7.991-7.991 20.948-7.991 28.939 0l33.976 33.976c7.991 7.991 7.991 20.948 0 28.939l-33.976 33.976c-7.991 7.991-20.948 7.992-28.939 0l-33.976-33.976c-7.991-7.991-7.991-20.948 0-28.939z"/><path fill="#E9C1FF" d="M285.528 98.71c7.991-7.99 20.948-7.99 28.94 0l33.975 33.976c7.992 7.992 7.992 20.949 0 28.94l-33.975 33.976c-7.992 7.991-20.949 7.991-28.94 0l-33.976-33.976c-7.991-7.991-7.991-20.948 0-28.94z"/><path fill="#CD88FF" d="M271.29 209.32c8.137 8.137 8.137 21.33 0 29.467l-33.448 33.448c-8.137 8.137-21.33 8.137-29.467 0l-33.448-33.448c-8.138-8.137-8.138-21.33 0-29.467l33.448-33.449c8.137-8.137 21.33-8.137 29.467 0z"/><path fill="#A950FF" d="M194.654 286.476c7.991 7.991 7.991 20.948 0 28.939l-33.976 33.976c-7.991 7.991-20.948 7.991-28.94 0l-33.975-33.976c-7.992-7.991-7.992-20.948 0-28.939l33.975-33.976c7.992-7.991 20.949-7.991 28.94 0z"/><path fill="#CD88FF" d="M425.078 209.32c8.137 8.137 8.137 21.33 0 29.467l-33.448 33.448c-8.138 8.137-21.33 8.137-29.467 0l-33.449-33.448c-8.137-8.137-8.137-21.33 0-29.467l33.449-33.449c8.137-8.137 21.329-8.137 29.467 0z"/><path fill="#F62E76" d="M332.916 428.992c18.179 18.179 18.179 47.653 0 65.832s-47.653 18.179-65.832 0-18.179-47.653 0-65.832 47.653-18.179 65.832 0"/></g><defs><clipPath id="a"><path fill="#fff" d="M0 .948h600v600H0z"/></clipPath></defs></svg>