<svg xmlns="http://www.w3.org/2000/svg" width="211.2" height="201.437" viewBox="0 0 158.4 151.078"><defs><style>*{stroke-linecap:butt;stroke-linejoin:round}</style></defs><g id="figure_1"><path id="patch_1" d="M0 151.078h158.4V0H0z" style="fill:none"/><g id="axes_1"><path id="patch_2" d="M79.2 141.437a65.9 65.9 0 0 0 65.898-65.898A65.9 65.9 0 0 0 79.2 9.641a65.9 65.9 0 0 0-65.898 65.898A65.9 65.9 0 0 0 79.2 141.437z" clip-path="url(#p05aec58a04)" style="fill:#fff;stroke:#fff;stroke-linejoin:miter"/><path id="PolyCollection_1" d="M-6.224 92.147v72.477h170.847V97.547l-2.44-.164-2.44-.188-2.441-.215-2.441-.244-2.44-.275-2.441-.31-2.441-.346-2.44-.387-2.441-.428-2.441-.472-2.44-.52-2.441-.567-2.441-.616-2.44-.668-2.441-.718-2.441-.77-2.44-.818-2.441-.868-2.441-.914-2.44-.958-2.442-.997-2.44-1.032-2.44-1.061-2.442-1.084-2.44-1.101-2.44-1.109-2.442-1.109-2.44-1.1-2.44-1.08-2.442-1.054-2.44-1.016-2.441-.968-2.44-.911-2.441-.844-2.441-.769-2.44-.684-2.441-.593-2.441-.495-2.44-.39-2.441-.283-2.441-.17-2.44-.058-2.441.057-2.441.171-2.44.283-2.441.39-2.441.495-2.44.593-2.441.684-2.441.769-2.44.844-2.442.91-2.44.969-2.44 1.016-2.442 1.053-2.44 1.082-2.44 1.1-2.442 1.108-2.44 1.109-2.44 1.1-2.442 1.085-2.44 1.061-2.441 1.032-2.44.997-2.441.958-2.441.914-2.44.868-2.441.819-2.441.77z" clip-path="url(#p31243c7135)" style="fill:#5c7da2"/><path id="PolyCollection_2" d="M-6.224 68.526v22.401l2.44-.718 2.442-.77 2.44-.819 2.441-.867 2.44-.915 2.441-.957 2.441-.997 2.44-1.032 2.441-1.061 2.441-1.085 2.44-1.1 2.441-1.11 2.441-1.108 2.44-1.1 2.441-1.081 2.441-1.054 2.44-1.016 2.441-.968 2.441-.91 2.44-.845 2.442-.768 2.44-.685 2.44-.592 2.442-.495 2.44-.39 2.44-.283 2.442-.171 2.44-.057 2.44.057 2.442.17 2.44.283 2.441.391 2.44.495 2.441.592 2.441.685 2.44.768 2.441.844 2.441.911 2.44.968 2.441 1.016 2.441 1.054 2.44 1.081 2.441 1.1 2.441 1.109 2.44 1.109 2.441 1.1 2.441 1.085 2.44 1.06 2.441 1.033 2.441.997 2.44.957 2.442.915 2.44.867 2.44.82 2.442.769 2.44.718 2.44.667 2.442.617 2.44.567 2.44.52 2.442.472 2.44.428 2.441.386 2.44.347 2.441.31 2.441.275 2.44.243 2.441.215 2.441.188 2.44.165V61.372l-2.44-.82-2.44-.867-2.441-.914-2.441-.958-2.44-.997-2.441-1.032-2.441-1.061-2.44-1.085-2.441-1.1-2.441-1.109-2.44-1.109-2.441-1.1-2.441-1.081-2.44-1.054-2.441-1.015-2.441-.969-2.44-.91-2.441-.844-2.441-.769-2.44-.684-2.442-.593-2.44-.495-2.44-.39-2.442-.283-2.44-.17-2.44-.058-2.442.057-2.44.171-2.44.282-2.442.391-2.44.495-2.441.593-2.44.684-2.441.769-2.441.844-2.44.91-2.441.969-2.441 1.015-2.44 1.054-2.441 1.081-2.441 1.1-2.44 1.11-2.441 1.108-2.441 1.1-2.44 1.085-2.441 1.061-2.441 1.032-2.44.997-2.441.958-2.441.914-2.44.868-2.442.819-2.44.769-2.44.718-2.442.668-2.44.616-2.44.568-2.442.519-2.44.472-2.44.428-2.442.386-2.44.347-2.441.31-2.44.275-2.441.244-2.441.214-2.44.189-2.441.164-2.441.143z" clip-path="url(#p31243c7135)" style="fill:#7db0bc"/><path id="patch_3" d="M146.319 75.539A67.12 67.12 0 0 0 31.74 28.079 67.12 67.12 0 0 0 79.2 142.658a67.12 67.12 0 0 0 67.119-67.119m-1.22 0a65.9 65.9 0 0 1-112.496 46.597A65.9 65.9 0 0 1 79.2 9.641a65.9 65.9 0 0 1 65.898 65.898m1.22 0z" clip-path="url(#p05aec58a04)" style="fill:#444876;stroke:#444876;stroke-linejoin:miter"/><path id="patch_4" d="M-6.224 165.844H8.42v-51.483H-6.224z" clip-path="url(#p31243c7135)" style="fill:#444876;stroke:#fff;stroke-linejoin:miter"/><path id="patch_5" d="M8.42 165.844h14.644v-57.576H8.42z" clip-path="url(#p31243c7135)" style="fill:#444876;stroke:#fff;stroke-linejoin:miter"/><path id="patch_6" d="M23.064 165.844h14.644V97.685H23.064z" clip-path="url(#p31243c7135)" style="fill:#444876;stroke:#fff;stroke-linejoin:miter"/><path id="patch_7" d="M37.708 165.844h14.645V87.486H37.708z" clip-path="url(#p31243c7135)" style="fill:#444876;stroke:#fff;stroke-linejoin:miter"/><path id="patch_8" d="M52.353 165.844h14.644V85.647H52.353z" clip-path="url(#p31243c7135)" style="fill:#444876;stroke:#fff;stroke-linejoin:miter"/><path id="patch_9" d="M66.997 165.844H81.64V93.831H66.997z" clip-path="url(#p31243c7135)" style="fill:#444876;stroke:#fff;stroke-linejoin:miter"/><path id="patch_10" d="M81.64 165.844h14.645v-60.71H81.64z" clip-path="url(#p31243c7135)" style="fill:#444876;stroke:#fff;stroke-linejoin:miter"/><path id="patch_11" d="M96.285 165.844h14.644v-52.978H96.285z" clip-path="url(#p31243c7135)" style="fill:#444876;stroke:#fff;stroke-linejoin:miter"/><path id="patch_12" d="M110.929 165.844h14.644V116.13h-14.644z" clip-path="url(#p31243c7135)" style="fill:#444876;stroke:#fff;stroke-linejoin:miter"/><g id="PathCollection_1"><path d="M79.2 76.657a1.118 1.118 0 1 0 0-2.236 1.118 1.118 0 0 0 0 2.236zm-.648-5.724a2.227 2.227 0 1 0 0-4.454 2.227 2.227 0 0 0 0 4.454zm-5.397-8.947a1.24 1.24 0 1 0 0-2.481 1.24 1.24 0 0 0 0 2.48zm1.116 12.937a2.211 2.211 0 1 0 0-4.422 2.211 2.211 0 0 0 0 4.422z" clip-path="url(#p0d18b7291c)" style="fill:#afdad2;stroke:#fff;stroke-width:.25"/><path d="M74.644 79.815a2.484 2.484 0 1 0 0-4.968 2.484 2.484 0 0 0 0 4.968zM82.8 72.44a2.521 2.521 0 1 0 0-5.044 2.521 2.521 0 0 0 0 5.043zm3.06 6.517a1.834 1.834 0 1 0 0-3.667 1.834 1.834 0 0 0 0 3.667zM72.558 67.018a1.607 1.607 0 1 0 0-3.213 1.607 1.607 0 0 0 0 3.213zm8.795 14.648a1.712 1.712 0 1 0 0-3.425 1.712 1.712 0 0 0 0 3.425zm9.321-7.796a1.816 1.816 0 1 0 0-3.63 1.816 1.816 0 0 0 0 3.63zM66.266 59.19a2.112 2.112 0 1 0 0-4.224 2.112 2.112 0 0 0 0 4.224zm27.171 27.466a1.333 1.333 0 1 0 0-2.666 1.333 1.333 0 0 0 0 2.666zM67.279 68.017a1.255 1.255 0 1 0 0-2.51 1.255 1.255 0 0 0 0 2.51zm5.674-11.037a2.355 2.355 0 1 0 0-4.71 2.355 2.355 0 0 0 0 4.71zm7.497 6.831a1.923 1.923 0 1 0 0-3.847 1.923 1.923 0 0 0 0 3.847zm16.342 28.073a1.953 1.953 0 1 0 0-3.907 1.953 1.953 0 0 0 0 3.907zm-21.114-2.422a1.854 1.854 0 1 0 0-3.709 1.854 1.854 0 0 0 0 3.71zM58.952 75.968a2.6 2.6 0 1 0 0-5.2 2.6 2.6 0 0 0 0 5.2z" clip-path="url(#p0d18b7291c)" style="fill:#afdad2;stroke:#fff;stroke-width:.25"/><path d="M84.235 66.853a2.313 2.313 0 1 0 0-4.626 2.313 2.313 0 0 0 0 4.626zM78.9 95.964a2.406 2.406 0 1 0 0-4.812 2.406 2.406 0 0 0 0 4.812z" clip-path="url(#p0d18b7291c)" style="fill:#afdad2;stroke:#fff;stroke-width:.25"/><path d="M86.312 62.638a2.198 2.198 0 1 0 0-4.395 2.198 2.198 0 0 0 0 4.395zm-21.713-8.045a1.72 1.72 0 1 0 0-3.439 1.72 1.72 0 0 0 0 3.44zm1.315 21.665a1.789 1.789 0 1 0 0-3.577 1.789 1.789 0 0 0 0 3.577zm-4.928-9.928a2.216 2.216 0 1 0 0-4.432 2.216 2.216 0 0 0 0 4.432zm31.064-1.096a2.619 2.619 0 1 0 0-5.237 2.619 2.619 0 0 0 0 5.237zm-3.631 4.225a1.31 1.31 0 1 0 0-2.622 1.31 1.31 0 0 0 0 2.622zm-.92 26.186a1.58 1.58 0 1 0 0-3.159 1.58 1.58 0 0 0 0 3.16zM62.758 71.99a2.592 2.592 0 1 0 0-5.185 2.592 2.592 0 0 0 0 5.184zm7.731 17.143a1.458 1.458 0 1 0 0-2.917 1.458 1.458 0 0 0 0 2.917zM51.076 66.97a1.638 1.638 0 1 0 0-3.277 1.638 1.638 0 0 0 0 3.277zm26.415-10.606a2.55 2.55 0 1 0 0-5.099 2.55 2.55 0 0 0 0 5.1zm5.236 3.035a1.786 1.786 0 1 0 0-3.571 1.786 1.786 0 0 0 0 3.57zM64.635 47.003a2.537 2.537 0 1 0 0-5.075 2.537 2.537 0 0 0 0 5.075zm5.295 32.458a2.222 2.222 0 1 0 0-4.443 2.222 2.222 0 0 0 0 4.443zm16.482 6.455a2.274 2.274 0 1 0 0-4.548 2.274 2.274 0 0 0 0 4.548z" clip-path="url(#p0d18b7291c)" style="fill:#afdad2;stroke:#fff;stroke-width:.25"/><path d="M90.48 83.827a2.378 2.378 0 1 0 0-4.755 2.378 2.378 0 0 0 0 4.755zm.126-24.478a2.252 2.252 0 1 0 0-4.505 2.252 2.252 0 0 0 0 4.505zm.141 41.263a2.112 2.112 0 1 0 0-4.225 2.112 2.112 0 0 0 0 4.225zM81.863 52.72a1.187 1.187 0 1 0 0-2.374 1.187 1.187 0 0 0 0 2.374zm12.312 26.983a2.356 2.356 0 1 0 0-4.71 2.356 2.356 0 0 0 0 4.71zm1.055-21.729a2.421 2.421 0 1 0 0-4.842 2.421 2.421 0 0 0 0 4.842zM77.01 84.965a1.638 1.638 0 1 0 0-3.276 1.638 1.638 0 0 0 0 3.276zm4.518 3.835a2.165 2.165 0 1 0 0-4.33 2.165 2.165 0 0 0 0 4.33zm23.852-1.267a2.2 2.2 0 1 0 0-4.399 2.2 2.2 0 0 0 0 4.399zM70.812 71.488a1.797 1.797 0 1 0 0-3.594 1.797 1.797 0 0 0 0 3.594zm25.879 3.675a2.249 2.249 0 1 0 0-4.498 2.249 2.249 0 0 0 0 4.498zm3.647 4.579a1.332 1.332 0 1 0 0-2.663 1.332 1.332 0 0 0 0 2.663zM60.539 60.604a1.85 1.85 0 1 0 0-3.7 1.85 1.85 0 0 0 0 3.7zm45.105 20.079a1.803 1.803 0 1 0 0-3.607 1.803 1.803 0 0 0 0 3.607zM66.853 64.215a2.413 2.413 0 1 0 0-4.826 2.413 2.413 0 0 0 0 4.826zm18.656 37.903a1.888 1.888 0 1 0 0-3.776 1.888 1.888 0 0 0 0 3.776zm-14.844-7.233a1.88 1.88 0 1 0 0-3.761 1.88 1.88 0 0 0 0 3.761zm.171-10.655a2.513 2.513 0 1 0 0-5.027 2.513 2.513 0 0 0 0 5.027zM62.1 79.265a1.734 1.734 0 1 0 0-3.468 1.734 1.734 0 0 0 0 3.468zm25.16 12.6a2.613 2.613 0 1 0 0-5.226 2.613 2.613 0 0 0 0 5.226zm19.482-16.512a1.499 1.499 0 1 0 0-2.998 1.499 1.499 0 0 0 0 2.998zm-17.246-21.83a1.844 1.844 0 1 0 0-3.69 1.844 1.844 0 0 0 0 3.69zm.711 51.999a2.35 2.35 0 1 0 0-4.699 2.35 2.35 0 0 0 0 4.7zm5.939-4.516a2.422 2.422 0 1 0 0-4.844 2.422 2.422 0 0 0 0 4.844zm-25.876.17a2.227 2.227 0 1 0 0-4.453 2.227 2.227 0 0 0 0 4.453zM99.41 65.67a1.85 1.85 0 1 0 0-3.702 1.85 1.85 0 0 0 0 3.701zm-1.16 20.274a1.657 1.657 0 1 0 0-3.313 1.657 1.657 0 0 0 0 3.313zm-2.047 19.763a1.32 1.32 0 1 0 0-2.64 1.32 1.32 0 0 0 0 2.64zm-13.583.505a1.963 1.963 0 1 0 0-3.926 1.963 1.963 0 0 0 0 3.926zm20.587-13.243a2.373 2.373 0 1 0 0-4.745 2.373 2.373 0 0 0 0 4.745zm-10.85 1.703a1.85 1.85 0 1 0 0-3.7 1.85 1.85 0 0 0 0 3.7zm-29.76-4.252a2.412 2.412 0 1 0 0-4.823 2.412 2.412 0 0 0 0 4.824zm33.687-20.705a1.91 1.91 0 1 0 0-3.818 1.91 1.91 0 0 0 0 3.818z" clip-path="url(#p0d18b7291c)" style="fill:#afdad2;stroke:#fff;stroke-width:.25"/><path d="M73.662 104.467a2.566 2.566 0 1 0 0-5.131 2.566 2.566 0 0 0 0 5.131zm36.282-14.939a2.536 2.536 0 1 0 0-5.072 2.536 2.536 0 0 0 0 5.072zm-5.364-20.402a2.347 2.347 0 1 0 0-4.693 2.347 2.347 0 0 0 0 4.693zm-58.955-1.668a1.232 1.232 0 1 0 0-2.464 1.232 1.232 0 0 0 0 2.464zm13.546-16.629a2.458 2.458 0 1 0 0-4.916 2.458 2.458 0 0 0 0 4.916zm1.011 33.443a1.935 1.935 0 1 0 0-3.87 1.935 1.935 0 0 0 0 3.87zM82.154 97.87a1.327 1.327 0 1 0 0-2.654 1.327 1.327 0 0 0 0 2.654zM53.915 53.263a2.314 2.314 0 1 0 0-4.627 2.314 2.314 0 0 0 0 4.627zM65.44 86.842a2.374 2.374 0 1 0-.001-4.749 2.374 2.374 0 0 0 0 4.749zm35.412 12.422a1.151 1.151 0 1 0 0-2.303 1.151 1.151 0 0 0 0 2.303zM69.244 43.98a2.613 2.613 0 1 0 0-5.225 2.613 2.613 0 0 0 0 5.225zM100.2 60.773a1.564 1.564 0 1 0 0-3.128 1.564 1.564 0 0 0 0 3.128zM49.972 47.776a1.756 1.756 0 1 0 0-3.51 1.756 1.756 0 0 0 0 3.51zm58.415 44.598a1.214 1.214 0 1 0 0-2.429 1.214 1.214 0 0 0 0 2.429zm4.214-12.225a2.19 2.19 0 1 0 0-4.381 2.19 2.19 0 0 0 0 4.381zM52.92 75.674a2.285 2.285 0 1 0 0-4.57 2.285 2.285 0 0 0 0 4.57zm-1.816 6.476a2.52 2.52 0 1 0 0-5.042 2.52 2.52 0 0 0 0 5.041zm54.752 26.11a2.157 2.157 0 1 0 0-4.313 2.157 2.157 0 0 0 0 4.314zm13.389-34.729a2.192 2.192 0 1 0 0-4.384 2.192 2.192 0 0 0 0 4.384zM97.733 51.052a2.189 2.189 0 1 0 0-4.377 2.189 2.189 0 0 0 0 4.377zm-12.176-3.631a2.507 2.507 0 1 0 0-5.014 2.507 2.507 0 0 0 0 5.014zm26.503 25.761a1.73 1.73 0 1 0 0-3.46 1.73 1.73 0 0 0 0 3.46zM58.14 70.37a2.28 2.28 0 1 0 0-4.56 2.28 2.28 0 0 0 0 4.56zm60.639 14.222a1.444 1.444 0 1 0 0-2.888 1.444 1.444 0 0 0 0 2.888z" clip-path="url(#p0d18b7291c)" style="fill:#afdad2;stroke:#fff;stroke-width:.25"/><path d="M100.888 55.215a2.563 2.563 0 1 0 0-5.126 2.563 2.563 0 0 0 0 5.126zm-45.315 29.94a1.69 1.69 0 1 0 0-3.38 1.69 1.69 0 0 0 0 3.38zm45.954-11.801a2.407 2.407 0 1 0 0-4.814 2.407 2.407 0 0 0 0 4.814zm-15.754 37.873a2.414 2.414 0 1 0 0-4.83 2.414 2.414 0 0 0 0 4.83zM45.637 57.393a2.086 2.086 0 1 0 0-4.171 2.086 2.086 0 0 0 0 4.171zm-.23 28.183a2.408 2.408 0 1 0 0-4.817 2.408 2.408 0 0 0 0 4.817z" clip-path="url(#p0d18b7291c)" style="fill:#afdad2;stroke:#fff;stroke-width:.25"/><path d="M103.122 51.1a2.472 2.472 0 1 0 0-4.944 2.472 2.472 0 0 0 0 4.944zm-26.933 48.923a2.473 2.473 0 1 0 0-4.946 2.473 2.473 0 0 0 0 4.946zm3.732 2.141a1.498 1.498 0 1 0 0-2.996 1.498 1.498 0 0 0 0 2.996zm33.693-7.569a1.798 1.798 0 1 0 0-3.596 1.798 1.798 0 0 0 0 3.596zm-8.256 3.591a1.458 1.458 0 1 0 0-2.915 1.458 1.458 0 0 0 0 2.915zm-4.745 13.234a2.037 2.037 0 1 0 0-4.074 2.037 2.037 0 0 0 0 4.075zm-8.199.784a1.542 1.542 0 1 0 0-3.084 1.542 1.542 0 0 0 0 3.084zm22.115-44.909a1.477 1.477 0 1 0 0-2.954 1.477 1.477 0 0 0 0 2.954zM55.362 78.903a1.156 1.156 0 1 0 0-2.312 1.156 1.156 0 0 0 0 2.312zm.145-17.625a1.544 1.544 0 1 0 0-3.09 1.544 1.544 0 0 0 0 3.09zm2.809 34.218a2.452 2.452 0 1 0 0-4.903 2.452 2.452 0 0 0 0 4.903zm52.737-10.734a2.354 2.354 0 1 0 0-4.708 2.354 2.354 0 0 0 0 4.708zM48.29 40.879a2.513 2.513 0 1 0 0-5.026 2.513 2.513 0 0 0 0 5.026zm6.782 4.703a1.944 1.944 0 1 0 0-3.887 1.944 1.944 0 0 0 0 3.887zm22.397 63.404a1.812 1.812 0 1 0 0-3.624 1.812 1.812 0 0 0 0 3.624zm-5.325 1.518a1.542 1.542 0 1 0 0-3.084 1.542 1.542 0 0 0 0 3.084zm-18.307-19.11a1.983 1.983 0 1 0 0-3.967 1.983 1.983 0 0 0 0 3.967zm8.465 6.78a1.526 1.526 0 1 0 0-3.052 1.526 1.526 0 0 0 0 3.052zm26.286-58.393a2.273 2.273 0 1 0 0-4.546 2.273 2.273 0 0 0 0 4.546zm22.875 61.222a2.063 2.063 0 1 0 0-4.125 2.063 2.063 0 0 0 0 4.125zM40.92 51.83a1.378 1.378 0 1 0 0-2.756 1.378 1.378 0 0 0 0 2.755zm74.112 36.181a1.417 1.417 0 1 0 0-2.833 1.417 1.417 0 0 0 0 2.833zM48.545 77.672a2.155 2.155 0 1 0 0-4.31 2.155 2.155 0 0 0 0 4.31zM91.978 49.58a1.747 1.747 0 1 0 0-3.495 1.747 1.747 0 0 0 0 3.495zm-46.481.952a1.635 1.635 0 1 0 0-3.27 1.635 1.635 0 0 0 0 3.27zm2.133 14.085a2.567 2.567 0 1 0 0-5.133 2.567 2.567 0 0 0 0 5.133zm73.968 28.303a2.18 2.18 0 1 0 0-4.359 2.18 2.18 0 0 0 0 4.36zM37.15 45.352a2.167 2.167 0 1 0 0-4.335 2.167 2.167 0 0 0 0 4.335zm69.111 57.991a1.889 1.889 0 1 0 0-3.777 1.889 1.889 0 0 0 0 3.777zm.743-40.481a2.14 2.14 0 1 0 0-4.278 2.14 2.14 0 0 0 0 4.278zM37.433 65.92a2.104 2.104 0 1 0 0-4.208 2.104 2.104 0 0 0 0 4.209zm64.217 38.317a1.637 1.637 0 1 0 0-3.274 1.637 1.637 0 0 0 0 3.274zm23.935-7.264a1.198 1.198 0 1 0 0-2.396 1.198 1.198 0 0 0 0 2.396zm-47.85 16.807a2.121 2.121 0 1 0 0-4.242 2.121 2.121 0 0 0 0 4.242zm-1.055 4.603a2.315 2.315 0 1 0 0-4.63 2.315 2.315 0 0 0 0 4.63zM66.23 91.868a1.33 1.33 0 1 0 0-2.66 1.33 1.33 0 0 0 0 2.66zm40.397-36.196a1.662 1.662 0 1 0 0-3.323 1.662 1.662 0 0 0 0 3.323zm-36.533 51.566a2.528 2.528 0 1 0 0-5.056 2.528 2.528 0 0 0 0 5.056zm-1.332 11.021a1.849 1.849 0 1 0 0-3.698 1.849 1.849 0 0 0 0 3.698zm52.088-51.973a1.856 1.856 0 1 0 0-3.712 1.856 1.856 0 0 0 0 3.712zM98.499 96.72a2.323 2.323 0 1 0 0-4.645 2.323 2.323 0 0 0 0 4.646zM43.124 73.912a1.564 1.564 0 1 0 0-3.127 1.564 1.564 0 0 0 0 3.127zm14.96 16.093a2.15 2.15 0 1 0 0-4.3 2.15 2.15 0 0 0 0 4.3zM47.893 93.95a1.767 1.767 0 1 0 0-3.533 1.767 1.767 0 0 0 0 3.533zm50.29-49.32a1.831 1.831 0 1 0 0-3.661 1.831 1.831 0 0 0 0 3.662zm13.065 63.765a2.448 2.448 0 1 0 0-4.897 2.448 2.448 0 0 0 0 4.897z" clip-path="url(#p0d18b7291c)" style="fill:#afdad2;stroke:#fff;stroke-width:.25"/><path d="M115.614 106.3a2.559 2.559 0 1 0 0-5.118 2.559 2.559 0 0 0 0 5.117zM80.39 119.673a1.146 1.146 0 1 0 0-2.292 1.146 1.146 0 0 0 0 2.292zM50.028 86.968a1.404 1.404 0 1 0 0-2.809 1.404 1.404 0 0 0 0 2.809zm58.345 25.933a2.528 2.528 0 1 0 0-5.056 2.528 2.528 0 0 0 0 5.056zm7.294-13.231a2.225 2.225 0 1 0 0-4.449 2.225 2.225 0 0 0 0 4.45zm-50.351 5.385a2.168 2.168 0 1 0 0-4.335 2.168 2.168 0 0 0 0 4.335zM45.677 44.396a1.13 1.13 0 1 0 0-2.26 1.13 1.13 0 0 0 0 2.26zm58.077 71.011a2.424 2.424 0 1 0 0-4.849 2.424 2.424 0 0 0 0 4.849zm-42.95-72.772a2.11 2.11 0 1 0 0-4.218 2.11 2.11 0 0 0 0 4.218zm16.023 1.221a1.82 1.82 0 1 0 0-3.64 1.82 1.82 0 0 0 0 3.64zM80.159 32.5a1.191 1.191 0 1 0 0-2.383 1.191 1.191 0 0 0 0 2.383zm46.982 52.49a2.043 2.043 0 1 0 0-4.087 2.043 2.043 0 0 0 0 4.086zM82.69 93.802a2.487 2.487 0 1 0 0-4.973 2.487 2.487 0 0 0 0 4.973zm34.524-12.335a2.498 2.498 0 1 0 0-4.995 2.498 2.498 0 0 0 0 4.995zm3.173 28.458a1.807 1.807 0 1 0 0-3.614 1.807 1.807 0 0 0 0 3.614zM84.032 39.358a1.99 1.99 0 1 0 0-3.982 1.99 1.99 0 0 0 0 3.982zm-19.887-1.162a2.045 2.045 0 1 0 0-4.09 2.045 2.045 0 0 0 0 4.09zm59.632 41.162a1.424 1.424 0 1 0 0-2.849 1.424 1.424 0 0 0 0 2.849zM85.041 116.89a1.322 1.322 0 1 0 0-2.644 1.322 1.322 0 0 0 0 2.643zm-12.733 4.443a2.24 2.24 0 1 0 0-4.479 2.24 2.24 0 0 0 0 4.479zM124.3 75.002a2.528 2.528 0 1 0 0-5.056 2.528 2.528 0 0 0 0 5.056zM38.523 57.854a1.66 1.66 0 1 0 0-3.32 1.66 1.66 0 0 0 0 3.32zm90.65 16.735a1.475 1.475 0 1 0 0-2.95 1.475 1.475 0 0 0 0 2.95zm-15.114 38.129a1.557 1.557 0 1 0 0-3.114 1.557 1.557 0 0 0 0 3.114zm-8.257 7.852a1.526 1.526 0 1 0 0-3.051 1.526 1.526 0 0 0 0 3.051z" clip-path="url(#p0d18b7291c)" style="fill:#afdad2;stroke:#fff;stroke-width:.25"/><path d="M126.653 70.542a2.424 2.424 0 1 0 0-4.848 2.424 2.424 0 0 0 0 4.848zM93.19 40.215a2.528 2.528 0 1 0 0-5.055 2.528 2.528 0 0 0 0 5.055zm38.916 48.39a2.5 2.5 0 1 0 0-5.002 2.5 2.5 0 0 0 0 5.002zM48.01 102.988a2.308 2.308 0 1 0 0-4.616 2.308 2.308 0 0 0 0 4.616zm6.556-2.491a2.513 2.513 0 1 0 0-5.026 2.513 2.513 0 0 0 0 5.026zM68.8 38.503a2.32 2.32 0 1 0 0-4.64 2.32 2.32 0 0 0 0 4.64zm-26.959 1.871a2.151 2.151 0 1 0 0-4.303 2.151 2.151 0 0 0 0 4.303zm11.972-5.554a2.487 2.487 0 1 0 0-4.975 2.487 2.487 0 0 0 0 4.975zm66.265 24.768a1.295 1.295 0 1 0 0-2.59 1.295 1.295 0 0 0 0 2.59zm9.552 4.489a2.243 2.243 0 1 0 0-4.485 2.243 2.243 0 0 0 0 4.485zm-8.024 53.732a2.337 2.337 0 1 0 0-4.674 2.337 2.337 0 0 0 0 4.674zm-21.132-79.64a1.536 1.536 0 1 0 0-3.073 1.536 1.536 0 0 0 0 3.073zm-53.51-6.274a1.954 1.954 0 1 0 0-3.908 1.954 1.954 0 0 0 0 3.908zm8.813 8.753a1.663 1.663 0 1 0 0-3.327 1.663 1.663 0 0 0 0 3.327zm75.054 40.768a2.05 2.05 0 1 0 0-4.1 2.05 2.05 0 0 0 0 4.1zM88.375 113.79a1.342 1.342 0 1 0 0-2.684 1.342 1.342 0 0 0 0 2.685zm-47.05-15.674a1.597 1.597 0 1 0 0-3.193 1.597 1.597 0 0 0 0 3.193zM59.76 37.038a1.69 1.69 0 1 0 0-3.38 1.69 1.69 0 0 0 0 3.38zm39.602 80.956a2.332 2.332 0 1 0 0-4.664 2.332 2.332 0 0 0 0 4.664zM112.327 58.8a2.21 2.21 0 1 0 0-4.42 2.21 2.21 0 0 0 0 4.42zM42.92 80.392a1.986 1.986 0 1 0 0-3.972 1.986 1.986 0 0 0 0 3.972zM33.665 41.33a1.701 1.701 0 1 0 0-3.402 1.701 1.701 0 0 0 0 3.402zm4.685-6.614a1.56 1.56 0 1 0 0-3.121 1.56 1.56 0 0 0 0 3.121zm-1.759 41.113a2.575 2.575 0 1 0 0-5.15 2.575 2.575 0 0 0 0 5.15zm31.357 36.643a1.361 1.361 0 1 0 0-2.722 1.361 1.361 0 0 0 0 2.722zm-29.288-27.7a1.993 1.993 0 1 0 0-3.987 1.993 1.993 0 0 0 0 3.987zm100.545-.181a1.313 1.313 0 1 0 0-2.625 1.313 1.313 0 0 0 0 2.625zM74.354 39.56a1.308 1.308 0 1 0 0-2.615 1.308 1.308 0 0 0 0 2.616zM32.465 49.942a2.162 2.162 0 1 0 0-4.324 2.162 2.162 0 0 0 0 4.324zm-4.829-3.645a1.625 1.625 0 1 0 0-3.25 1.625 1.625 0 0 0 0 3.25zm77.608-1.209a2.273 2.273 0 1 0 0-4.546 2.273 2.273 0 0 0 0 4.546zm17.796 42.029a1.923 1.923 0 1 0 0-3.847 1.923 1.923 0 0 0 0 3.847zm-12.743-20.393a2.513 2.513 0 1 0 0-5.025 2.513 2.513 0 0 0 0 5.025zm22.488.974a1.187 1.187 0 1 0 0-2.375 1.187 1.187 0 0 0 0 2.375zm-23.143-16.779a1.533 1.533 0 1 0 0-3.065 1.533 1.533 0 0 0 0 3.065zm-62.506 58.144a2.567 2.567 0 1 0 0-5.135 2.567 2.567 0 0 0 0 5.135zm.654-36.065a1.827 1.827 0 1 0 0-3.654 1.827 1.827 0 0 0 0 3.654zm89.082-10.244a2.543 2.543 0 1 0 0-5.087 2.543 2.543 0 0 0 0 5.087zM86.004 124.72a1.958 1.958 0 1 0 0-3.918 1.958 1.958 0 0 0 0 3.917zm-7.189-85.539a1.635 1.635 0 1 0 0-3.27 1.635 1.635 0 0 0 0 3.27zM41.648 47.67a2.52 2.52 0 1 0 0-5.041 2.52 2.52 0 0 0 0 5.04zm-2.627 22.737a2.43 2.43 0 1 0 0-4.858 2.43 2.43 0 0 0 0 4.858z" clip-path="url(#p0d18b7291c)" style="fill:#afdad2;stroke:#fff;stroke-width:.25"/><path d="M115.565 62.443a2.56 2.56 0 1 0 0-5.12 2.56 2.56 0 0 0 0 5.12zm-35.904 62.922a1.573 1.573 0 1 0 0-3.146 1.573 1.573 0 0 0 0 3.146zm-47.064-25.97a2.459 2.459 0 1 0 0-4.918 2.459 2.459 0 0 0 0 4.918zm29.339 20.13a1.448 1.448 0 1 0 0-2.896 1.448 1.448 0 0 0 0 2.896zm35.233-83.314a2.527 2.527 0 1 0 0-5.053 2.527 2.527 0 0 0 0 5.053zm-41.533 30.09a1.901 1.901 0 1 0 0-3.802 1.901 1.901 0 0 0 0 3.802zM114.4 54.27a2.07 2.07 0 1 0 0-4.142 2.07 2.07 0 0 0 0 4.141zm-80.595 5.748a1.466 1.466 0 1 0 0-2.933 1.466 1.466 0 0 0 0 2.933zm59.823 57.806a2.003 2.003 0 1 0 0-4.005 2.003 2.003 0 0 0 0 4.005zm-8.66 12.233a2.207 2.207 0 1 0 0-4.415 2.207 2.207 0 0 0 0 4.415zM70.436 31.413a2.016 2.016 0 1 0 0-4.032 2.016 2.016 0 0 0 0 4.032zm63.78 22.42a1.914 1.914 0 1 0 0-3.829 1.914 1.914 0 0 0 0 3.83zm-48.569 1.739a1.724 1.724 0 1 0 0-3.448 1.724 1.724 0 0 0 0 3.448zm42.438 37.162a2.506 2.506 0 1 0 0-5.012 2.506 2.506 0 0 0 0 5.012zM93.08 125.473a2.394 2.394 0 1 0 0-4.787 2.394 2.394 0 0 0 0 4.787zm-53.24-35.42a2.353 2.353 0 1 0 0-4.705 2.353 2.353 0 0 0 0 4.705zm72.486-55.863a2.06 2.06 0 1 0 0-4.12 2.06 2.06 0 0 0 0 4.12zm-52.771 70.713a1.81 1.81 0 1 0 0-3.62 1.81 1.81 0 0 0 0 3.62zM84.927 33.14a1.64 1.64 0 1 0 0-3.28 1.64 1.64 0 0 0 0 3.28zm36.201 20.772a2.415 2.415 0 1 0 0-4.83 2.415 2.415 0 0 0 0 4.83zm-.543 48.565a1.246 1.246 0 1 0 0-2.492 1.246 1.246 0 0 0 0 2.492zM49.173 54.776a2.138 2.138 0 1 0 0-4.277 2.138 2.138 0 0 0 0 4.277zm60.461 68.637a1.98 1.98 0 1 0 0-3.96 1.98 1.98 0 0 0 0 3.96zM90.489 33.846a2.047 2.047 0 1 0 0-4.094 2.047 2.047 0 0 0 0 4.094zm-28.877 81.437a2.506 2.506 0 1 0 0-5.013 2.506 2.506 0 0 0 0 5.013zm43.372-79.441a1.696 1.696 0 1 0 0-3.393 1.696 1.696 0 0 0 0 3.393zm-7.558 87.186a2.488 2.488 0 1 0 0-4.977 2.488 2.488 0 0 0 0 4.977zm-43.94-9.718a1.959 1.959 0 1 0 0-3.917 1.959 1.959 0 0 0 0 3.917zm43.196.677a1.955 1.955 0 1 0 0-3.91 1.955 1.955 0 0 0 0 3.91zM42.413 93.053a1.27 1.27 0 1 0 0-2.541 1.27 1.27 0 0 0 0 2.541zm78.585-53.535a1.53 1.53 0 1 0 0-3.058 1.53 1.53 0 0 0 0 3.058zM63.777 28.283a1.318 1.318 0 1 0 0-2.636 1.318 1.318 0 0 0 0 2.636zm11.983-3.618a1.93 1.93 0 1 0 0-3.86 1.93 1.93 0 0 0 0 3.86zM64.331 110.67a2.413 2.413 0 1 0 0-4.825 2.413 2.413 0 0 0 0 4.825zm71.104-34.52a2.01 2.01 0 1 0 0-4.022 2.01 2.01 0 0 0 0 4.022z" clip-path="url(#p0d18b7291c)" style="fill:#afdad2;stroke:#fff;stroke-width:.25"/><path d="M58.151 111.881a2.149 2.149 0 1 0 0-4.297 2.149 2.149 0 0 0 0 4.297zm62.506-76.874a2.542 2.542 0 1 0 0-5.084 2.542 2.542 0 0 0 0 5.084zm-8.323 83.42a1.836 1.836 0 1 0 0-3.673 1.836 1.836 0 0 0 0 3.673zm-55.573.015a2.423 2.423 0 1 0 0-4.846 2.423 2.423 0 0 0 0 4.846zm16.045-3.104a1.92 1.92 0 1 0 0-3.84 1.92 1.92 0 0 0 0 3.84zM33.718 82.655a1.513 1.513 0 1 0 0-3.026 1.513 1.513 0 0 0 0 3.026zm103.259-.832a2.406 2.406 0 1 0 0-4.812 2.406 2.406 0 0 0 0 4.812zm-6.013 22.87a2.133 2.133 0 1 0 0-4.266 2.133 2.133 0 0 0 0 4.266zM72.849 36.046a2.402 2.402 0 1 0 0-4.805 2.402 2.402 0 0 0 0 4.805z" clip-path="url(#p0d18b7291c)" style="fill:#afdad2;stroke:#fff;stroke-width:.25"/><path d="M140.158 78.652a2.407 2.407 0 1 0 0-4.813 2.407 2.407 0 0 0 0 4.813zm-90.253 41.245a2.136 2.136 0 1 0 0-4.271 2.136 2.136 0 0 0 0 4.27zM37.646 96.264a2.552 2.552 0 1 0 0-5.104 2.552 2.552 0 0 0 0 5.104zm81.208-46.789a2.05 2.05 0 1 0 0-4.101 2.05 2.05 0 0 0 0 4.101zm-85.63 40.862a2.001 2.001 0 1 0 0-4.002 2.001 2.001 0 0 0 0 4.002zm105.212-17.575a1.987 1.987 0 1 0 0-3.974 1.987 1.987 0 0 0 0 3.974zm-56.7-45.718a2.396 2.396 0 1 0 0-4.793 2.396 2.396 0 0 0 0 4.793zm52.427 64.896a1.505 1.505 0 1 0 0-3.01 1.505 1.505 0 0 0 0 3.01zM102.51 29.963a2.483 2.483 0 1 0 0-4.965 2.483 2.483 0 0 0 0 4.965zm13.098 92.145a2.247 2.247 0 1 0 0-4.494 2.247 2.247 0 0 0 0 4.494zm14.572-22.374a1.78 1.78 0 1 0 0-3.56 1.78 1.78 0 0 0 0 3.56zm-77.252-3.777a2.194 2.194 0 1 0 0-4.388 2.194 2.194 0 0 0 0 4.388zm75.282-50.388a2.35 2.35 0 1 0 0-4.7 2.35 2.35 0 0 0 0 4.7zm.24 7.804a1.477 1.477 0 1 0 0-2.954 1.477 1.477 0 0 0 0 2.954zM75.217 17.115a1.342 1.342 0 1 0 0-2.683 1.342 1.342 0 0 0 0 2.683zm-28.452 97.023a1.559 1.559 0 1 0 0-3.117 1.559 1.559 0 0 0 0 3.117zM96.647 31.36a2.253 2.253 0 1 0 0-4.507 2.253 2.253 0 0 0 0 4.507zm-3.015-4.328a1.819 1.819 0 1 0 0-3.638 1.819 1.819 0 0 0 0 3.638z" clip-path="url(#p0d18b7291c)" style="fill:#afdad2;stroke:#fff;stroke-width:.25"/><path d="M84.491 23.071a2.334 2.334 0 1 0 0-4.668 2.334 2.334 0 0 0 0 4.668zm-25.743 9.518a2.616 2.616 0 1 0 0-5.233 2.616 2.616 0 0 0 0 5.233zm-6.945 74.203a1.373 1.373 0 1 0 0-2.747 1.373 1.373 0 0 0 0 2.747zm28.263 24.563a2 2 0 1 0 0-4.001 2 2 0 0 0 0 4.001zm54.922-34.006a1.937 1.937 0 1 0 0-3.873 1.937 1.937 0 0 0 0 3.873zM42.607 28.736a1.425 1.425 0 1 0 0-2.849 1.425 1.425 0 0 0 0 2.85zm6.773-.955a1.847 1.847 0 1 0 0-3.694 1.847 1.847 0 0 0 0 3.694zm37.374 109.566a1.34 1.34 0 1 0 0-2.679 1.34 1.34 0 0 0 0 2.68zm24.934-91.326a1.296 1.296 0 1 0 0-2.591 1.296 1.296 0 0 0 0 2.591zm25.952 43.164a1.56 1.56 0 1 0 0-3.12 1.56 1.56 0 0 0 0 3.12zm-16.534 9.025a2.432 2.432 0 1 0 0-4.863 2.432 2.432 0 0 0 0 4.863zm-91.45-2.834a2.088 2.088 0 1 0 0-4.175 2.088 2.088 0 0 0 0 4.175zm95.498-34.078a1.812 1.812 0 1 0 0-3.623 1.812 1.812 0 0 0 0 3.623zm-35.468 58.691a1.893 1.893 0 1 0 0-3.786 1.893 1.893 0 0 0 0 3.786zm21.749-81.019a2.277 2.277 0 1 0 0-4.553 2.277 2.277 0 0 0 0 4.553zm-24.975-12a1.264 1.264 0 1 0 0-2.528 1.264 1.264 0 0 0 0 2.528zm-26.845.255a2.398 2.398 0 1 0 0-4.796 2.398 2.398 0 0 0 0 4.796zM24.432 56.617a2.085 2.085 0 1 0 0-4.17 2.085 2.085 0 0 0 0 4.17zm5.554.719a2.422 2.422 0 1 0 0-4.844 2.422 2.422 0 0 0 0 4.844zm19.572-21.353a2.331 2.331 0 1 0 0-4.662 2.331 2.331 0 0 0 0 4.662zM25.117 51.428a1.807 1.807 0 1 0 0-3.614 1.807 1.807 0 0 0 0 3.614zm72.846-26.226a1.977 1.977 0 1 0 0-3.954 1.977 1.977 0 0 0 0 3.954zm-55.036 8.301a1.799 1.799 0 1 0 0-3.598 1.799 1.799 0 0 0 0 3.598z" clip-path="url(#p0d18b7291c)" style="fill:#afdad2;stroke:#fff;stroke-width:.25"/><path d="M34.205 55.173a2.523 2.523 0 1 0 0-5.047 2.523 2.523 0 0 0 0 5.047zm82.021-17.17a2.472 2.472 0 1 0 0-4.945 2.472 2.472 0 0 0 0 4.945zm-62.758 86.131a2.54 2.54 0 1 0 0-5.081 2.54 2.54 0 0 0 0 5.08zM32.16 69.66a2.014 2.014 0 1 0 0-4.03 2.014 2.014 0 0 0 0 4.03zm25.758 53.976a1.456 1.456 0 1 0 0-2.911 1.456 1.456 0 0 0 0 2.911zm39.338 4.826a1.474 1.474 0 1 0 0-2.949 1.474 1.474 0 0 0 0 2.95zm27.883-90.754a1.7 1.7 0 1 0 0-3.4 1.7 1.7 0 0 0 0 3.4zM66.358 33.5a1.894 1.894 0 1 0 0-3.788 1.894 1.894 0 0 0 0 3.788zm24.894 98.092a1.225 1.225 0 1 0 0-2.45 1.225 1.225 0 0 0 0 2.45zm16.679-100.221a1.586 1.586 0 1 0 0-3.172 1.586 1.586 0 0 0 0 3.172zM31.03 78.123a2.415 2.415 0 1 0 0-4.83 2.415 2.415 0 0 0 0 4.83zm94.261 30.334a2.022 2.022 0 1 0 0-4.044 2.022 2.022 0 0 0 0 4.044zm-18.041-81.06a2.587 2.587 0 1 0 0-5.174 2.587 2.587 0 0 0 0 5.174zm-31.895 4.408a2.313 2.313 0 1 0 0-4.625 2.313 2.313 0 0 0 0 4.625zm48.875 11.181a1.984 1.984 0 1 0 0-3.969 1.984 1.984 0 0 0 0 3.969zm-27.864 91.591a1.848 1.848 0 1 0 0-3.696 1.848 1.848 0 0 0 0 3.696zM26.615 80.849a2.329 2.329 0 1 0 0-4.658 2.329 2.329 0 0 0 0 4.658zm74.893 50.825a1.988 1.988 0 1 0 0-3.977 1.988 1.988 0 0 0 0 3.977zM29.51 60.9a1.164 1.164 0 1 0 0-2.327 1.164 1.164 0 0 0 0 2.328z" clip-path="url(#p0d18b7291c)" style="fill:#afdad2;stroke:#fff;stroke-width:.25"/><path d="M29.745 73.517a2.099 2.099 0 1 0 0-4.198 2.099 2.099 0 0 0 0 4.198zm24.222-44.885a2.173 2.173 0 1 0 0-4.345 2.173 2.173 0 0 0 0 4.345zm71.138 73.096a1.561 1.561 0 1 0 0-3.123 1.561 1.561 0 0 0 0 3.123zm-52.119 29.643a1.522 1.522 0 1 0 0-3.044 1.522 1.522 0 0 0 0 3.044zm57.89-21.716a2.394 2.394 0 1 0 0-4.788 2.394 2.394 0 0 0 0 4.788zM116.06 76.837a2.199 2.199 0 1 0 0-4.397 2.199 2.199 0 0 0 0 4.397zm-37.75 60.298a2.23 2.23 0 1 0 0-4.46 2.23 2.23 0 0 0 0 4.46zm-41.419-57.84a1.498 1.498 0 1 0 0-2.996 1.498 1.498 0 0 0 0 2.996zm65.401 46.547a1.657 1.657 0 1 0 0-3.314 1.657 1.657 0 0 0 0 3.314zM75.84 127.96a1.478 1.478 0 1 0 0-2.956 1.478 1.478 0 0 0 0 2.957zm7.66 6.663a2.372 2.372 0 1 0 0-4.743 2.372 2.372 0 0 0 0 4.743zM69.826 25.09a1.552 1.552 0 1 0 0-3.104 1.552 1.552 0 0 0 0 3.103zM45.09 89.245a1.163 1.163 0 1 0 0-2.326 1.163 1.163 0 0 0 0 2.326zm22.542 38.39a2.326 2.326 0 1 0 0-4.651 2.326 2.326 0 0 0 0 4.65zm-33.564-20.862a1.698 1.698 0 1 0 0-3.395 1.698 1.698 0 0 0 0 3.395zm80.797-76.905a1.953 1.953 0 1 0 0-3.905 1.953 1.953 0 0 0 0 3.905zm-7.619 98.86a2.151 2.151 0 1 0 0-4.302 2.151 2.151 0 0 0 0 4.302zM65.49 21.956a2.428 2.428 0 1 0 0-4.857 2.428 2.428 0 0 0 0 4.857zm38.093 2.319a2.245 2.245 0 1 0 0-4.491 2.245 2.245 0 0 0 0 4.49zM66.167 81.646a2.134 2.134 0 1 0 0-4.269 2.134 2.134 0 0 0 0 4.269zm-2.103 51.724a2.436 2.436 0 1 0 0-4.872 2.436 2.436 0 0 0 0 4.872zM54.545 21.881a1.799 1.799 0 1 0 0-3.598 1.799 1.799 0 0 0 0 3.598zM76.38 123.408a2.551 2.551 0 1 0-.001-5.102 2.551 2.551 0 0 0 0 5.102zm-17.658 5.379a1.88 1.88 0 1 0 0-3.76 1.88 1.88 0 0 0 0 3.76zm71.287-69.692a1.98 1.98 0 1 0 0-3.959 1.98 1.98 0 0 0 0 3.96zM58.865 20.49a1.984 1.984 0 1 0 0-3.968 1.984 1.984 0 0 0 0 3.968zm-30.19 63.466a1.189 1.189 0 1 0 0-2.377 1.189 1.189 0 0 0 0 2.377zm84.145 43.878a2.4 2.4 0 1 0 0-4.8 2.4 2.4 0 0 0 0 4.8zM89.45 18.003a2.328 2.328 0 1 0 0-4.656 2.328 2.328 0 0 0 0 4.656zM24.969 92.138a1.569 1.569 0 1 0 0-3.138 1.569 1.569 0 0 0 0 3.138zm16.382 11.617a1.976 1.976 0 1 0 0-3.951 1.976 1.976 0 0 0 0 3.951zm26.038 18.918a2.037 2.037 0 1 0 0-4.074 2.037 2.037 0 0 0 0 4.074zm-5.226 2.541a1.872 1.872 0 1 0 0-3.744 1.872 1.872 0 0 0 0 3.744zm-11.653 4.214a1.32 1.32 0 1 0 0-2.638 1.32 1.32 0 0 0 0 2.638z" clip-path="url(#p0d18b7291c)" style="fill:#afdad2;stroke:#fff;stroke-width:.25"/><path d="M128.254 113.727a2.467 2.467 0 1 0 0-4.933 2.467 2.467 0 0 0 0 4.933zm-48.159-95.23a1.812 1.812 0 1 0 0-3.624 1.812 1.812 0 0 0 0 3.624zM71.89 125.983a2.458 2.458 0 1 0 0-4.916 2.458 2.458 0 0 0 0 4.916zM94.1 20.708a1.386 1.386 0 1 0 0-2.771 1.386 1.386 0 0 0 0 2.771zm-4.627 2.127a2.57 2.57 0 1 0 0-5.139 2.57 2.57 0 0 0 0 5.14zm10.197-2.493a1.776 1.776 0 1 0 0-3.551 1.776 1.776 0 0 0 0 3.55zM46.082 98.257a1.928 1.928 0 1 0 0-3.856 1.928 1.928 0 0 0 0 3.856zm70.854 18.95a2.046 2.046 0 1 0 0-4.092 2.046 2.046 0 0 0 0 4.092zm20.53-50.64a1.497 1.497 0 1 0 0-2.993 1.497 1.497 0 0 0 0 2.993zM19.995 63.655a2.23 2.23 0 1 0 0-4.461 2.23 2.23 0 0 0 0 4.46zm-.626 18.425a1.992 1.992 0 1 0 0-3.985 1.992 1.992 0 0 0 0 3.984zm51.233-61.891a1.2 1.2 0 1 0 0-2.402 1.2 1.2 0 0 0 0 2.402zm-34.094 82.053a1.544 1.544 0 1 0 0-3.09 1.544 1.544 0 0 0 0 3.09zm30.447-4.705a1.812 1.812 0 1 0 0-3.624 1.812 1.812 0 0 0 0 3.624zm44.9-71.851a1.45 1.45 0 1 0 0-2.898 1.45 1.45 0 0 0 0 2.898zM84.77 18.437a2.096 2.096 0 1 0 0-4.192 2.096 2.096 0 0 0 0 4.192zM59.44 135.439a2.305 2.305 0 1 0 0-4.61 2.305 2.305 0 0 0 0 4.61zm-18.699-26.792a2.222 2.222 0 1 0 0-4.443 2.222 2.222 0 0 0 0 4.443zM22.653 78.246a1.959 1.959 0 1 0 0-3.917 1.959 1.959 0 0 0 0 3.917zm-.591 8.267a2.386 2.386 0 1 0 0-4.772 2.386 2.386 0 0 0 0 4.772zm3.043-12a1.879 1.879 0 1 0 0-3.757 1.879 1.879 0 0 0 0 3.757zm29.898 57.375a1.84 1.84 0 1 0 0-3.68 1.84 1.84 0 0 0 0 3.68zm-11.169-8.271a1.998 1.998 0 1 0 0-3.997 1.998 1.998 0 0 0 0 3.997zm64.048-7.38a1.341 1.341 0 1 0 0-2.682 1.341 1.341 0 0 0 0 2.682zm-71.176-4.226a2.185 2.185 0 1 0 0-4.37 2.185 2.185 0 0 0 0 4.37z" clip-path="url(#p0d18b7291c)" style="fill:#afdad2;stroke:#fff;stroke-width:.25"/><path d="M48.232 126.105a2.379 2.379 0 1 0 0-4.758 2.379 2.379 0 0 0 0 4.758zm75.551-69.763a1.336 1.336 0 1 0 0-2.671 1.336 1.336 0 0 0 0 2.67zM19.147 74.744a1.472 1.472 0 1 0 0-2.944 1.472 1.472 0 0 0 0 2.944zm10.384 35.637a1.631 1.631 0 1 0 0-3.262 1.631 1.631 0 0 0 0 3.262zm.261-7.103a2.512 2.512 0 1 0 0-5.023 2.512 2.512 0 0 0 0 5.023zm-5.664-6.075a1.862 1.862 0 1 0 0-3.724 1.862 1.862 0 0 0 0 3.724zm44.486 37.209a1.415 1.415 0 1 0 0-2.83 1.415 1.415 0 0 0 0 2.83zm-26.43-19.497a1.24 1.24 0 1 0 0-2.48 1.24 1.24 0 0 0 0 2.48zm30.768 21.762a1.89 1.89 0 1 0 0-3.78 1.89 1.89 0 0 0 0 3.78zm-49.343-34.702a2.12 2.12 0 1 0 0-4.24 2.12 2.12 0 0 0 0 4.24zm11.374 15a2.358 2.358 0 1 0 0-4.716 2.358 2.358 0 0 0 0 4.716zm4.657 2.785a1.44 1.44 0 1 0 0-2.881 1.44 1.44 0 0 0 0 2.88zM20.4 91.449a2.548 2.548 0 1 0-.001-5.095 2.548 2.548 0 0 0 0 5.095zM36.913 50.26a2.415 2.415 0 1 0 0-4.829 2.415 2.415 0 0 0 0 4.83zm83.234 72.867a2.53 2.53 0 1 0 0-5.06 2.53 2.53 0 0 0 0 5.06z" clip-path="url(#p0d18b7291c)" style="fill:#afdad2;stroke:#fff;stroke-width:.25"/><path d="M25.601 106.782a2.478 2.478 0 1 0 0-4.957 2.478 2.478 0 0 0 0 4.957zm19.406 12.228a1.78 1.78 0 1 0 0-3.56 1.78 1.78 0 0 0 0 3.56zm78.466-5.363a2.215 2.215 0 1 0 0-4.429 2.215 2.215 0 0 0 0 4.43zM28.751 89.208a1.632 1.632 0 1 0 0-3.264 1.632 1.632 0 0 0 0 3.264z" clip-path="url(#p0d18b7291c)" style="fill:#afdad2;stroke:#fff;stroke-width:.25"/></g></g></g><defs><clipPath id="p05aec58a04"><path d="M7.2 7.2h144v136.678H7.2z"/></clipPath><clipPath id="p31243c7135"><path d="M79.2 138.997a63.46 63.46 0 0 0 63.458-63.458A63.46 63.46 0 0 0 79.2 12.081 63.46 63.46 0 0 0 15.742 75.54 63.46 63.46 0 0 0 79.2 138.997"/></clipPath><clipPath id="p0d18b7291c"><path d="M-6.224-14.766v82.071l2.44-.123 2.442-.143 2.44-.165 2.441-.188 2.44-.215 2.441-.243 2.441-.276 2.44-.31 2.441-.346 2.441-.386 2.44-.428 2.441-.473 2.441-.519 2.44-.567 2.441-.617 2.441-.667 2.44-.718 2.441-.77 2.441-.819 2.44-.868 2.442-.914 2.44-.957 2.44-.997 2.442-1.032 2.44-1.062 2.44-1.084 2.442-1.1 2.44-1.11 2.44-1.108 2.442-1.1 2.44-1.081 2.441-1.054 2.44-1.016 2.441-.968 2.441-.91 2.44-.845 2.441-.768 2.441-.685 2.44-.593 2.441-.494 2.441-.39 2.44-.283 2.441-.171 2.441-.057 2.44.057 2.441.17 2.441.283 2.44.39 2.441.495 2.441.593 2.44.685 2.442.768 2.44.844 2.44.911 2.442.968 2.44 1.016 2.44 1.054L135.337 48l2.44 1.1 2.44 1.109 2.442 1.109 2.44 1.1 2.441 1.084 2.44 1.062 2.441 1.032 2.441.997 2.44.957 2.441.914 2.441.868 2.44.82v-74.918H-6.222"/></clipPath></defs></svg>